<svg width="2157" height="2158" viewBox="0 0 2157 2158" fill="none" xmlns="http://www.w3.org/2000/svg">
<path fill-rule="evenodd" clip-rule="evenodd" d="M1078.17 7.64715C1239.4 7.55555 1398.57 43.8541 1543.81 113.838C1689.07 183.824 1816.66 285.694 1917.05 411.852C2017.46 538.011 2088.09 685.204 2123.69 842.46C2159.28 999.718 2158.93 1162.98 2122.64 1320.08C2086.36 1477.18 2015.09 1624.06 1914.14 1749.79C1813.19 1875.51 1685.16 1976.81 1539.6 2046.17C1394.04 2115.52 1234.71 2151.13 1073.47 2150.33C920.803 2149.57 770.158 2116.2 631.599 2052.55L97.5901 2149.11C70.3064 2154.04 42.4762 2143.93 24.7191 2122.64C6.96194 2101.35 2.01748 2072.15 11.7724 2046.21L164.955 1638.66C70.9176 1485.15 16.9586 1310.22 8.3706 1129.98C-0.852566 936.41 42.6016 743.961 134.105 573.133C225.608 402.305 361.733 259.494 527.983 159.913C694.224 60.3348 884.385 7.71172 1078.17 7.64715ZM770.343 1078.99C770.343 1164.08 701.362 1233.06 616.272 1233.06C531.181 1233.06 462.2 1164.08 462.2 1078.99C462.2 993.9 531.181 924.919 616.272 924.919C701.362 924.919 770.343 993.9 770.343 1078.99ZM1078.49 1233.06C1163.58 1233.06 1232.56 1164.08 1232.56 1078.99C1232.56 993.9 1163.58 924.919 1078.49 924.919C993.395 924.919 924.414 993.9 924.414 1078.99C924.414 1164.08 993.395 1233.06 1078.49 1233.06ZM1540.7 1233.06C1625.79 1233.06 1694.77 1164.08 1694.77 1078.99C1694.77 993.9 1625.79 924.919 1540.7 924.919C1455.61 924.919 1386.63 993.9 1386.63 1078.99C1386.63 1164.08 1455.61 1233.06 1540.7 1233.06Z" fill="white"/>
</svg>
