<svg width="2948" height="2948" viewBox="0 0 2948 2948" fill="none" xmlns="http://www.w3.org/2000/svg">
<circle cx="1474" cy="1474" r="1451.89" stroke="white" stroke-width="44.22"/>
<path d="M2166.52 1918.58C2166.52 1943.1 2161.07 1968.3 2149.49 1992.83C2137.91 2017.35 2122.93 2040.51 2103.18 2062.31C2069.8 2099.09 2033.02 2125.65 1991.46 2142.68C1950.59 2159.71 1906.32 2168.57 1858.64 2168.57C1789.16 2168.57 1714.91 2152.22 1636.58 2118.84C1558.24 2085.46 1479.91 2040.51 1402.25 1983.97C1323.92 1926.75 1249.67 1863.4 1178.83 1793.24C1108.67 1722.4 1045.32 1648.16 988.787 1570.5C932.931 1492.85 887.974 1415.2 855.278 1338.23C822.582 1260.57 806.234 1186.32 806.234 1115.48C806.234 1069.16 814.408 1024.89 830.756 984.018C847.104 942.467 872.988 904.322 909.09 870.264C952.685 827.35 1000.37 806.234 1050.77 806.234C1069.85 806.234 1088.92 810.321 1105.95 818.495C1123.66 826.669 1139.32 838.93 1151.59 856.64L1309.62 1079.38C1321.88 1096.41 1330.73 1112.08 1336.86 1127.06C1342.99 1141.37 1346.4 1155.67 1346.4 1168.61C1346.4 1184.96 1341.63 1201.31 1332.09 1216.98C1323.24 1232.64 1310.3 1248.99 1293.95 1265.34L1242.18 1319.15C1234.69 1326.65 1231.28 1335.5 1231.28 1346.4C1231.28 1351.85 1231.96 1356.62 1233.33 1362.07C1235.37 1367.52 1237.41 1371.6 1238.77 1375.69C1251.04 1398.17 1272.15 1427.46 1302.12 1462.88C1332.78 1498.3 1365.47 1534.4 1400.89 1570.5C1437.68 1606.6 1473.1 1639.98 1509.2 1670.63C1544.62 1700.61 1573.91 1721.04 1597.07 1733.3C1600.47 1734.66 1604.56 1736.71 1609.33 1738.75C1614.78 1740.79 1620.23 1741.48 1626.36 1741.48C1637.94 1741.48 1646.79 1737.39 1654.29 1729.9L1706.06 1678.81C1723.08 1661.78 1739.43 1648.84 1755.1 1640.66C1770.77 1631.13 1786.43 1626.36 1803.46 1626.36C1816.4 1626.36 1830.03 1629.08 1845.01 1635.21C1860 1641.34 1875.67 1650.2 1892.69 1661.78L2118.16 1821.85C2135.87 1834.11 2148.13 1848.42 2155.63 1865.45C2162.44 1882.48 2166.52 1899.51 2166.52 1918.58Z" stroke="white" stroke-width="102.175" stroke-miterlimit="10"/>
</svg>
