<svg width="3355" height="3355" viewBox="0 0 3355 3355" fill="none" xmlns="http://www.w3.org/2000/svg">
<circle cx="1677.5" cy="1677.5" r="1652.34" stroke="white" stroke-width="50.325"/>
<g clip-path="url(#clip0_204_89)">
<path fill-rule="evenodd" clip-rule="evenodd" d="M2099.69 985.794C2128.59 975.246 2159.87 973.122 2189.94 979.679C2220.29 986.302 2248.11 1001.5 2270.08 1023.47C2292.05 1045.44 2307.25 1073.26 2313.87 1103.62C2320.43 1133.67 2318.3 1164.97 2307.76 1193.85L1949.59 2267.35C1940.87 2293.75 1925.48 2317.54 1904.95 2336.3C1884.47 2355.01 1859.55 2368.15 1832.56 2374.48C1805.56 2381.06 1777.31 2380.5 1750.58 2372.87C1723.88 2365.24 1699.63 2350.81 1680.19 2330.99L1488.04 2139.72L1286.2 2244.09C1270.47 2252.23 1251.6 2251.45 1236.58 2242.04C1221.57 2232.64 1212.64 2215.99 1213.1 2198.28L1221.37 1879.23L1927.38 1366.39C1955.37 1346.06 1961.58 1306.89 1941.25 1278.9C1920.91 1250.91 1881.75 1244.71 1853.76 1265.04L1135.78 1786.57L962.436 1613.23C943.663 1594.47 929.825 1571.33 922.199 1545.91C914.627 1520.67 913.397 1493.95 918.613 1468.13C923.836 1439.92 936.447 1413.59 955.165 1391.84C974.012 1369.94 998.365 1353.46 1025.71 1344.13L1026.05 1344.01L2099.69 985.794Z" fill="white"/>
</g>
<defs>
<clipPath id="clip0_204_89">
<rect width="1403" height="1403" fill="white" transform="translate(915 976)"/>
</clipPath>
</defs>
</svg>
