<svg width="3975" height="3975" viewBox="0 0 3975 3975" fill="none" xmlns="http://www.w3.org/2000/svg">
<path d="M2557.96 1481.42H2559.13M1683.85 2999.65H2291.15C2797.22 2999.65 2999.65 2797.22 2999.65 2291.15V1683.85C2999.65 1177.78 2797.22 975.347 2291.15 975.347H1683.85C1177.78 975.347 975.347 1177.78 975.347 1683.85V2291.15C975.347 2797.22 1177.78 2999.65 1683.85 2999.65ZM2341.75 1987.5C2341.75 2183.15 2183.15 2341.75 1987.5 2341.75C1791.85 2341.75 1633.25 2183.15 1633.25 1987.5C1633.25 1791.85 1791.85 1633.25 1987.5 1633.25C2183.15 1633.25 2341.75 1791.85 2341.75 1987.5Z" stroke="white" stroke-width="151.823" stroke-linecap="round" stroke-linejoin="round"/>
<circle cx="1987.5" cy="1987.5" r="1957.69" stroke="white" stroke-width="59.625"/>
</svg>
