<svg width="2531" height="2532" viewBox="0 0 2531 2532" fill="none" xmlns="http://www.w3.org/2000/svg">
<g clip-path="url(#clip0_204_82)">
<path fill-rule="evenodd" clip-rule="evenodd" d="M401.024 0.5C279.39 0.5 180.786 99.1045 180.786 220.739V1047.05C180.786 1168.69 279.39 1267.29 401.024 1267.29H2129.98C2251.61 1267.29 2350.21 1168.69 2350.21 1047.05V220.739C2350.21 99.1043 2251.61 0.5 2129.98 0.5H401.024ZM889.625 1707.35C889.625 1851.26 772.966 1967.92 629.058 1967.92C485.149 1967.92 368.49 1851.26 368.49 1707.35C368.49 1563.45 485.149 1446.79 629.058 1446.79C772.966 1446.79 889.625 1563.45 889.625 1707.35ZM1902.84 1967.92C2046.75 1967.92 2163.41 1851.26 2163.41 1707.35C2163.41 1563.45 2046.75 1446.79 1902.84 1446.79C1758.93 1446.79 1642.27 1563.45 1642.27 1707.35C1642.27 1851.26 1758.93 1967.92 1902.84 1967.92ZM629.042 2108.64C419.763 2108.64 246.051 2260.92 212.676 2460.72C206.273 2499.05 238.39 2530.8 277.248 2530.8H980.838C1019.7 2530.8 1051.81 2499.05 1045.41 2460.72C1012.03 2260.92 838.323 2108.64 629.042 2108.64ZM1486.47 2460.72C1519.85 2260.92 1693.56 2108.64 1902.84 2108.64C2112.12 2108.64 2285.84 2260.92 2319.21 2460.72C2325.61 2499.05 2293.5 2530.8 2254.63 2530.8H1551.05C1512.19 2530.8 1480.07 2499.05 1486.47 2460.72ZM1468.6 384.033C1468.6 496.196 1377.67 587.124 1265.51 587.124C1153.35 587.124 1062.42 496.196 1062.42 384.033C1062.42 271.868 1153.35 180.942 1265.51 180.942C1377.67 180.942 1468.6 271.868 1468.6 384.033ZM908.441 1023.21C937.063 851.865 1086.03 721.271 1265.5 721.271C1444.97 721.271 1593.94 851.865 1622.56 1023.21C1628.05 1056.08 1600.51 1083.29 1567.18 1083.29H963.816C930.492 1083.29 902.951 1056.08 908.441 1023.21Z" fill="white"/>
</g>
<defs>
<clipPath id="clip0_204_82">
<rect width="2531" height="2531" fill="white" transform="translate(0 0.5)"/>
</clipPath>
</defs>
</svg>
